<svg width="18" height="18" viewBox="0 0 18 18" fill="none" xmlns="http://www.w3.org/2000/svg">
<path d="M9.0315 18C3.17175 18 0 14.2325 0 9.36856C0 4.17084 3.5715 0 9.957 0C14.6175 0 18 3.12002 18 7.41835C18 14.1498 10.2525 15.9269 10.641 12.0868C10.1085 12.9429 9.2505 13.9056 7.60125 13.9056C5.71425 13.9056 4.54125 12.4824 4.54125 10.1914C4.54125 6.75773 6.732 3.85637 9.3255 3.85637C10.5697 3.85637 11.4255 4.53322 11.7833 5.57246L12.1312 4.31147H13.8848C13.7018 4.95433 12.144 10.9 12.144 10.9C11.658 12.9599 13.1565 12.9962 14.4855 11.9021C16.9823 9.90865 17.1112 4.69548 13.737 2.52121C10.1213 0.287431 1.89075 1.66973 1.89075 9.23798C1.89075 13.5734 4.85325 16.4863 9.2625 16.4863C11.8395 16.4863 13.419 15.7678 14.7338 14.9812L15.6165 16.2932C14.3333 17.0396 12.2708 18 9.0315 18ZM7.2735 6.94703C6.73725 7.9824 6.39075 9.32375 6.39075 10.3653C6.39075 13.1546 9.03225 13.1724 10.3298 10.55C10.8637 9.47287 11.208 8.09984 11.208 7.05057C11.208 4.7967 8.58675 4.39724 7.2735 6.94703Z" fill="url(#paint0_linear)"/>
<defs>
<linearGradient id="paint0_linear" x1="0" y1="0" x2="18" y2="17.5" gradientUnits="userSpaceOnUse">
<stop stop-color="#C22326"/>
<stop offset="1" stop-color="#26114D"/>
</linearGradient>
</defs>
</svg>
