<svg id="Capa_1" enable-background="new 0 0 461.254 461.254" height="512" viewBox="0 0 461.254 461.254" width="512" xmlns="http://www.w3.org/2000/svg"><g><path d="m372.814 205.453-14.023 2.587 7.543 6.75-9.506 13.5h8.004l7.976 3.302v78.354l-15.986 5.827h15.986v43.441l-283.593 14v-127.954l15.187-18.354-15.187 8.229v-105.786c0-2.059.062-4.112.124-6.187l7.914-3.583-7.385-3.178c5.953-59.086 51.366-106.531 110.134-115.062l.872 16.953 2.992-5.299 2.182-12.403c4.113-.404 8.292-.59 12.499-.59h24.929c12.279-.018 24.496 1.734 36.275 5.203l1.687 7.262-7.228 9.163 11.34-5.861 2.025-8.072c13.158 4.818 25.455 11.722 36.421 20.446l1.277 11.75 5.67-5.799c18.823 17.272 32.123 39.721 38.226 64.528l-9.787 10.878 11.531-2.306c1.266 7.318 1.902 14.73 1.901 22.156z" fill="#828a9e"/><path d="m56.878 352.959h347.486v49.864h-347.486z" fill="#575b6d"/><path d="m243.477 28.062h-24.929c-55.912.065-101.221 45.374-101.286 101.286v226.192h227.502v-226.191c-.066-55.912-45.375-101.221-101.287-101.287zm79.473 318.13h-196.34v-216.843c.05-50.754 41.184-91.886 91.938-91.932h12.465c50.754.047 91.888 41.178 91.938 91.932v216.843z" fill="#575b6d"/><path d="m369.164 98.62-9.782 10.879 11.531-2.306" fill="none"/><path d="m324.008 28.13 1.276 11.745 5.676-5.794" fill="none"/><path d="m279.757 5.22 1.71 7.262-7.228 9.162 11.312-5.855 2.025-8.072" fill="none"/><path d="m200.002 1.356.878 16.953 2.987-5.299 2.182-12.402" fill="none"/><path d="m89.868 116.417 7.386 3.178-7.915 3.583" fill="none"/><path d="m89.216 235.152 15.175-8.223-15.175 18.353" fill="none"/><g fill="#575b6d"><path d="m258.478 36.832-13.246 47.327-9.349-48.497"/><path d="m223.807 33.907-11.88 27.854-2.925-27.854"/><path d="m120.388 104.358h18.951l-21.302 12.464"/><path d="m117.261 274.008 17.662 9.349h-17.662"/><path d="m161.152 348.02 5.714-21.296 10.131 23.377"/><path d="m335.673 322.05h-37.917l40.257 10.648"/><path d="m333.598 235.051-21.296 6.232h23.63"/></g><path d="m22.213 393.469h416.829v67.785h-416.829z" fill="#414451"/><path d="m215.893 211.91h-8.893l-5.827-16.52c-.989-2.853-2.796-5.352-5.197-7.183-2.389-1.859-5.338-2.85-8.364-2.812h-15.187v26.487h-8.173v-61.901h27.415c3.962-.105 7.918.365 11.745 1.395 3.112.985 5.757 3.073 7.436 5.872 1.934 3.009 2.943 6.52 2.902 10.097.128 3.912-1.197 7.733-3.718 10.727-2.657 2.976-6.247 4.96-10.181 5.625v.169c4.861 1.971 8.507 6.12 9.838 11.193zm-43.424-33.839h18.292c3.851.297 7.705-.539 11.087-2.407 2.48-2.012 3.776-5.142 3.442-8.319 0-7.042-4.421-10.563-13.263-10.563h-19.563z" fill="#eeefee"/><path d="m236.001 211.91h-8.24v-61.929h8.24z" fill="#eeefee"/><path d="m250.783 149.981h23.107c4.291-.09 8.574.386 12.74 1.417 3.389.923 6.294 3.112 8.117 6.114 2.005 3.147 3.049 6.81 3.004 10.541.36 5.418-1.846 10.689-5.957 14.236-5.013 3.558-11.101 5.274-17.235 4.86h-15.581v24.749h-8.195zm8.196 29.811h15.671c3.981.37 7.965-.678 11.25-2.959 2.342-2.198 3.58-5.327 3.375-8.533.041-2.332-.604-4.624-1.856-6.592-1.048-1.77-2.735-3.071-4.714-3.634-2.698-.588-5.458-.843-8.218-.759h-15.508z" fill="#eeefee"/></g></svg>