<svg width="22" height="18" viewBox="0 0 22 18" fill="none" xmlns="http://www.w3.org/2000/svg">
<path d="M22 2.13095C21.1906 2.49272 20.3207 2.73636 19.4077 2.84619C20.3399 2.28415 21.0558 1.39356 21.3923 0.33224C20.5205 0.852748 19.5543 1.23113 18.5258 1.43509C17.7036 0.551887 16.5293 0 15.2313 0C12.3172 0 10.1759 2.73728 10.8341 5.57886C7.084 5.38966 3.75833 3.5808 1.53175 0.831522C0.34925 2.87387 0.9185 5.54563 2.92783 6.89858C2.189 6.87459 1.49233 6.67063 0.884583 6.33009C0.835083 8.43519 2.33383 10.4046 4.5045 10.843C3.86925 11.0165 3.1735 11.0571 2.46583 10.9205C3.03967 12.7257 4.70617 14.039 6.6825 14.0759C4.785 15.5737 2.39433 16.2428 0 15.9586C1.99742 17.2478 4.37067 18 6.919 18C15.2992 18 20.0337 10.8744 19.7477 4.48339C20.6296 3.84198 21.395 3.04184 22 2.13095V2.13095Z" fill="url(#paint0_linear)"/>
<defs>
<linearGradient id="paint0_linear" x1="0" y1="0" x2="17.7425" y2="21.0829" gradientUnits="userSpaceOnUse">
<stop stop-color="#C22326"/>
<stop offset="1" stop-color="#26114D"/>
</linearGradient>
</defs>
</svg>
